# xmcd
#
# Track frame offsets: 
#        150
#        18202
#        33600
#        51313
#
# Disc length: 1065 seconds
#
# Revision: 0
# Processed by: cddbd v1.5.2PL0 Copyright (c) Steve Scherf et al.
# Submitted via: ExactAudioCopy v0.95a4
#
DISCID=2c042704
DTITLE=Treves Blues Band - Live 2008 [CD 2)
DYEAR=2008
DGENRE=Blues
TTITLE0=You Gotta Move
TTITLE1=One Of A Kind
TTITLE2=Your Funeral And My Trial
TTITLE3=Shame Shame Shame
EXTD=
EXTT0=
EXTT1=
EXTT2=
EXTT3=
PLAYORDER=
